<?xml version="1.0" encoding="UTF-8"?>
<!DOCTYPE svg PUBLIC "-//W3C//DTD SVG 1.1//EN" "http://www.w3.org/Graphics/SVG/1.1/DTD/svg11.dtd">
<!-- Creator: CorelDRAW -->
<svg xmlns="http://www.w3.org/2000/svg" xml:space="preserve" width="700px" height="231px" version="1.1" shape-rendering="geometricPrecision" text-rendering="geometricPrecision" image-rendering="optimizeQuality" fill-rule="evenodd" clip-rule="evenodd"
viewBox="0 0 1582 521.1"
 xmlns:xlink="http://www.w3.org/1999/xlink"
 xmlns:xodm="http://www.corel.com/coreldraw/odm/2003">
 <defs>
   <linearGradient id="id0" gradientUnits="userSpaceOnUse" x1="343.7" y1="-115.92" x2="1265.99" y2="831.86">
    <stop offset="0" stop-opacity="1" stop-color="#3F009E"/>
    <stop offset="1" stop-opacity="1" stop-color="#B516A5"/>
   </linearGradient>
 </defs>
 <g id="Слой_x0020_1">
  <metadata id="CorelCorpID_0Corel-Layer"/>
  <path fill="url(#id0)" d="M1557.34 324.95c-8.44,-5.13 -12.42,0.84 -13.17,7.13 -1.48,12.33 -3.75,24.53 -1.84,37.39 4.03,27.16 -3.12,33.98 -30.07,31.52 -0.9,-0.08 -1.78,-0.26 -2.66,-0.44 -7.03,-1.48 -15.8,-4.33 -18.88,4.21 -3.3,9.14 2.33,16.86 11.08,20.59 3.28,1.4 7.35,1.66 8.62,5.18 3.23,8.94 14.27,16.95 11.26,25.22 -3.4,9.34 -16.41,5.45 -24.46,4.65 -30.5,-3.02 -58.82,-14.75 -87.41,-25.04 -28.58,-10.3 -57.02,-20.99 -85.58,-31.34 -4.15,-1.5 -8.62,-2.7 -12.98,-2.84 -3.55,-0.12 -7,2.07 -8.48,5.67 -1.72,4.2 1.56,6.33 4.26,8.61 8.37,7.04 20.96,4.63 30.44,14.5 -8.01,1.87 -13.94,7.44 -21.23,-0.67 -5.69,-6.33 -13.62,-5.71 -21.63,-7.06 -24.37,-4.11 -48.39,-12.09 -71.68,-19.22 -25.18,-7.72 -50.83,-12.84 -76.12,-19.26 -48.79,-12.4 -98.89,-16.77 -148.91,-22.26 -25.68,-2.82 -51.01,-7.32 -76.98,-6.11 -4.61,0.21 -8.9,0.77 -12.34,4.17 -1.1,4 2.1,6.28 3.57,9.3 9.12,18.69 8.47,21.71 -9.09,31.86 -5.47,3.17 -11.17,5.35 -14.4,11.36 -5.24,9.75 -2.18,16.94 9.66,16.78 9.07,-0.13 15.42,8.27 25,5.91 -40.47,23.99 -86.3,31.96 -130.35,44.13 -43.82,12.12 -87.39,27.63 -135.85,23.18 6.87,-12.76 19.44,-17.59 33.4,-18.95 30.23,-2.94 56.64,-19.45 90.51,-21.91 -14.7,-13.33 -28.27,-9.97 -40.84,-7.9 -29.17,4.81 -58.27,10.24 -87.19,16.36 -17.09,3.61 -33.29,4.57 -47.59,-7.19 -6.91,-5.68 -13.99,-5.84 -22.49,-5 -25.82,2.52 -51.75,3.9 -77.65,5.66 -4.46,0.31 -9,0.85 -13.4,0.38 -20.68,-2.21 -41.74,-1.04 -53.37,-25.63 -6.53,-13.83 -9.8,-12.28 -6.76,-21.3 -7.3,-3.52 -16.35,10.41 -22.58,-2 -2.36,-4.71 -5.53,-2.59 -8.79,-1.65 -6.01,1.71 -11.98,3.69 -18.1,4.74 -4.15,0.72 -11,4.75 -10.11,-5.16 -2.31,1.23 -5.96,1.93 -6.7,3.79 -9.32,23.44 -32.07,26.68 -51.67,33.26 -13.56,4.56 -22,14.39 -31.88,22.88 -3.16,2.72 1.24,11.42 -7.76,11.15 -7.63,-0.23 -14.81,-1.83 -17.46,-9.66 -3.88,-11.53 -10.84,-9.85 -20.78,-8.72 -19.38,2.19 -35.84,10.21 -52.36,19.33 -19.47,10.76 -39.31,20.84 -64.81,34.27 8.93,-18.07 20.87,-24.4 33.27,-32.24 -12.99,-2.47 -20.54,4.43 -28.97,8.51 -7.23,3.5 -14.12,7.33 -22.16,9.35 -13.14,3.29 -20.64,0.67 -26.43,-13.03 -9.75,-23.07 -14.83,-47.99 -27.97,-69.67 -4.56,-7.54 0.21,-13.34 6.33,-21.02 -19.53,-2.75 -31.51,-14.98 -44.74,-26.86 -9.1,-8.18 -10.3,-14.64 -4.63,-21.75 7.29,-9.15 6.57,-17.56 2.39,-27.01 5.65,-4.95 12.02,-3.94 17.69,-3.66 11.72,0.58 18.11,-7.47 17.43,-15.94 -1.28,-15.93 9.68,-22.59 18.9,-29.96 11.77,-9.41 25.29,-16.64 37.91,-24.71 -3.88,-13.29 -14.33,-21.06 -24.1,-28.59 -9.96,-7.68 -8.83,-13.93 -1.62,-22.07 10.36,-11.69 23.01,-19.63 37.39,-25.49 61.33,-24.97 124.71,-42.97 189.11,-58.13 50.65,-11.93 101.88,-19.92 153.47,-24.61 91.96,-8.37 184.1,-11.82 276.49,-4.74 78.5,6.01 156.64,15.48 235.05,22.26 8.03,0.69 13.72,8.34 22.83,5.18 8.71,-3.03 19.19,4.35 25.91,1.13 5.96,-2.84 11.42,-8.31 18.91,-9.76 -1.24,-1.68 -2.04,-3.45 -3.4,-4.48 -9.94,-7.52 -18.76,6.57 -26.99,2.48 -9.69,-4.82 -17.83,-10.36 -29.73,-7.85 -11.46,2.41 -20.33,-6.24 -29.19,-11.78 -8.13,-5.09 -15.58,-8.11 -24.8,-4.72 -34.2,12.56 -67.32,2.86 -100.43,-5.11 -7.7,-1.85 -14.84,-6.41 -22.56,-7.58 -5.19,-0.79 -11.32,-8.49 -17.44,3.99 -3.57,7.29 -20.39,4.3 -28.5,-4.52 -9.57,-10.43 -21.6,-10.76 -31.97,-5.94 -26.32,12.21 -53.61,4.67 -80.36,6.7 -3.54,0.26 -7.51,0.86 -9.23,-3.25 -4.65,-11.12 -10.89,-6.85 -15.83,-1.06 -4.29,5.03 -9.42,4.7 -14.58,4.57 -6.84,-0.18 -11.07,0.31 -4.51,-9.34 2.82,-4.16 -16.47,-8.61 -17.75,-7.42 -10.53,9.81 -23.19,4.9 -33.75,4.64 -25.98,-0.64 -51.32,11.31 -77.39,3.42 -5.75,-1.74 -7.77,2.48 -10.71,5.63 -14.02,15.02 -32.01,16.54 -51.07,15.41 -39.94,-2.39 -39.94,-2.21 -83.29,16.52 -5.78,2.5 -10.11,1.67 -12.84,-4.83 -3.41,-8.12 -12.3,-7.32 -15.86,-3.83 -16.85,16.5 -40.04,13.06 -59.8,19.09 -16.81,5.12 -33.14,10.66 -49.38,17.36 -15.49,6.4 -33.5,7.99 -47.43,16.54 -12.89,7.9 -25.44,11.35 -39.59,11.9 -13.61,0.53 -20.84,15.99 -37.12,14.69 9.11,-15.8 24.18,-22.36 38.02,-28.99 48.41,-23.2 99.33,-40.24 149.3,-59.66 49.73,-19.34 101.51,-28.5 153,-39.53 43.69,-9.35 88.26,-12.96 132.93,-14.03 63.27,-1.52 126.53,-4.76 189.82,-0.2 63.32,4.56 126.57,9.84 189.17,20.5 85.43,14.56 171.18,29.89 253.53,56.12 72.7,23.16 145.53,47.58 213.97,83.68 43.43,22.91 87.22,44.95 129.21,70.5 5.93,3.61 13.4,4.61 19.98,7.24 13,5.19 27.15,6.43 32.45,24.92 3.33,11.62 19.06,18.29 24.92,31.69 -3.29,9.04 -13.79,4.78 -19.58,9.43 4.39,-1.31 7.78,-3.96 7.47,-8.65 -0.11,-1.56 -3.53,-4.11 -5.46,-4.12 -5.38,-0.02 -5.88,4.89 -7.09,8.81zm-788.56 175c0.33,1.41 1.29,3.85 0.91,4.09 -3.53,2.15 -7.04,4.76 -11.63,3.53 0.58,-1.6 0.84,-3.44 1.8,-4.76 2.19,-2.97 5.01,-4.83 8.92,-2.86zm660.99 -319.31c2.59,2.44 4.91,6.07 2.14,8.43 -1.52,1.29 -6.21,-0.9 -9.38,-1.84 -3.62,-1.07 -2.75,-4.12 -1.44,-6.01 2.36,-3.4 5.64,-2.34 8.68,-0.58zm-1144.35 -129.19c0.06,-3.47 -0.28,-7.01 0.28,-10.4 0.48,-2.83 3.01,-4.22 5.65,-2.8 2.11,1.13 4.93,3.11 5.2,5.03 0.42,2.96 -2.98,3.3 -5.43,3.79 -2.57,0.5 -5.06,1.17 -5.96,4.17 0.04,0.07 0.18,0.16 0.24,0.2l-0.19 -0.11c-17.12,-0.5 -31.9,11.84 -51.24,10.54 19.12,-16.33 35.72,-19.3 51.45,-10.43l-0.01 0 0 0 -0.01 0 0 0m438.94 466.93c2.8,-12.67 11.26,-14.82 23.14,-13.48 -4.14,13.21 -18.33,4.52 -23.2,13.4l0.02 0.02c-8.22,0.49 -16.59,6.96 -25.78,-1.65 9.65,-9.62 17.84,-8.16 25.82,1.71zm-545.11 -435.29c1.91,-2.74 3.01,-5.04 4.74,-6.66 3.21,-3.02 6.21,-2.3 7.33,1.96 0.69,2.62 -1.09,5.23 -3.73,5.71 -2.31,0.41 -4.87,-0.53 -8.34,-1.01zm208.95 -64.61c-4.09,11.68 -13.32,6.69 -22.82,7.87 6.59,-11.87 14.38,-10.88 22.95,-6.84l0 -0.02c11.26,-9.08 24.6,-9.4 38.46,-9.42 -11.01,12.29 -11.24,12.34 -38.59,8.41zm-263.08 87.93c-4.82,4.35 -10.05,8.57 -17.5,7.59 4.04,-7.26 11.27,-6.29 17.5,-7.59zm612.06 -104.27c9.72,-3.5 18.43,-2.57 28.25,1.95 -12.72,5.88 -12.72,5.88 -28.25,-1.95zm541.88 120.6c11.84,-8.27 17.23,1.77 28.28,2.59 -13.66,9.82 -19.47,1.47 -28.28,-2.59zm-122.09 -42.17c11.41,-11.67 18.38,2.38 32.81,4.5 -16.26,6.34 -24.53,0.2 -32.9,-5.48l0.03 0.33 -0.03 -0.33c-12.99,5.97 -21.94,-8.03 -38.19,-3.3 17.78,-14.99 28.38,-12.54 38.28,4.28zm-676.99 -70.38c-13.66,2.18 -21.93,5.08 -31.01,2.25 10.8,-10.01 10.8,-10.01 31.01,-2.25zm-194.54 41.26l0 0.01 0 -0.01zm0 0.01l0 0 0 0zm0 0l0 0 0 0zm0 0l0 0 0 0zm0 0l0 0 0 0m1087.88 106.87c17.99,-0.28 27.53,16.99 44.88,16.86 -22.04,11.8 -30.21,-11.8 -44.88,-16.86zm-1091.43 292.34c13.4,1.73 19.83,-4.29 26.38,-10.02 -8.29,1.45 -17.31,1.11 -26.38,10.02zm225.52 -64.55c2.64,-0.44 6.16,-0.68 9.41,-1.7 1.71,-0.54 1.36,-2.62 -0.68,-3.72 -3.37,-1.82 -6.76,-1.84 -9.7,0.91 -1.63,1.52 -1.48,2.97 0.97,4.51z"/>
  <path fill="white" d="M722.19 263.77l0 14.28 0 45.17 -33.36 0 0 -179.94 44.3 0 21.86 0c2.14,0 3.81,0.05 5.58,0.21 1.71,0.15 3.4,0.41 5.62,0.82 14.38,2.65 27.01,10.32 35.99,21.13 8.83,10.63 14.15,24.29 14.15,39.17 0,15.34 -5.64,29.37 -14.95,40.13 -9.44,10.9 -22.67,18.44 -37.63,20.58 -1.79,0.26 -3.07,0.42 -4.38,0.51 -1.36,0.1 -2.68,0.12 -4.55,0.12l-28.81 0 0 -32.09 28.71 0 0.08 0.01 0 -0.01c7.77,0 14.81,-3.26 19.9,-8.53 5.11,-5.3 8.27,-12.62 8.27,-20.72 0,-8.09 -3.16,-15.42 -8.28,-20.71 -5.09,-5.27 -12.12,-8.53 -19.89,-8.53l-32.61 0 0 33.67 0 54.73zm-118.55 -119.46c14.39,2.65 27.01,10.32 35.99,21.13 8.84,10.63 14.15,24.29 14.15,39.17 0,12.89 -3.98,24.86 -10.78,34.74 -6.39,9.27 -15.26,16.7 -25.65,21.33l51.94 53.34 -23.87 18.07c-27.32,-27.98 -54.63,-55.97 -81.95,-83.94l0 -14.29 28.71 0 0.08 0.01 0 -0.01c7.76,0 14.8,-3.26 19.89,-8.53 5.11,-5.3 8.27,-12.62 8.27,-20.72 0,-8.09 -3.16,-15.42 -8.27,-20.71 -5.09,-5.27 -12.13,-8.53 -19.89,-8.53l-32.62 0 0 33.67 0 69.01 0 45.17 -33.36 0 0 -179.94 66.17 0 0.1 0 0.09 0c2.05,0 3.67,0.05 5.38,0.21 1.71,0.15 3.4,0.41 5.62,0.82zm256.8 -63.68c5.14,0 9.8,2.08 13.16,5.45 3.37,3.37 5.46,8.02 5.46,13.16 0,5.14 -2.09,9.79 -5.46,13.16 -3.36,3.37 -8.02,5.45 -13.16,5.45 -5.13,0 -9.79,-2.08 -13.16,-5.45 -3.36,-3.37 -5.45,-8.02 -5.45,-13.16 0,-5.14 2.09,-9.79 5.45,-13.16 3.37,-3.37 8.03,-5.45 13.16,-5.45zm-460.84 87.18l13.22 -24.53 9.77 0 80.04 179.94 -34.85 0 -52.85 -118.84 -20.66 38.33 37.66 0 -13.11 31.39 -41.46 0 -26.47 49.12 -35.03 0c27.9,-51.81 55.76,-103.65 83.74,-155.41zm674.72 -24.53l89.46 0 0 28.75 -58.28 0 0 40.63 43.71 0 0 28.76 -43.71 0 0 53.04 60.13 0 0 28.76 -93.49 0 0 -179.94 2.18 0zm-68.85 6.46l3.83 -6.46 37.31 0 -50.16 84.67 56.9 78.06 -26.95 19.64 -48.44 -66.47 -37.94 64.04 -37.31 0 54.66 -92.28 0 0 18.5 -31.23 0 0 29.6 -49.97zm-50.56 77.81c-17.08,-23.44 -34.17,-46.89 -51.26,-70.32l26.94 -19.64 42.81 58.74 -18.49 31.22zm-108.96 -84.27l31.17 0 0 179.94 -33.36 0 0 -179.94 2.19 0z"/>
  <path fill="white" fill-rule="nonzero" d="M345.13 380.87l-0.3 3.92c-1.58,0.9 -3.7,1.35 -6.35,1.35 -5.06,0 -8.93,-1.4 -11.61,-4.19 -2.67,-2.79 -4.01,-6.16 -4.01,-10.11 0,-4.18 1.41,-7.77 4.22,-10.78 2.81,-3.01 6.53,-4.51 11.16,-4.51 2.33,0 4.22,0.24 5.69,0.7l-0.8 4.6c-2.05,-0.76 -4.13,-1.14 -6.24,-1.14 -2.77,0 -4.98,0.97 -6.62,2.9 -1.64,1.94 -2.46,4.36 -2.46,7.27 0,3.16 0.98,5.8 2.93,7.91 1.95,2.11 4.72,3.16 8.29,3.16 1.47,0 3.5,-0.36 6.1,-1.08z"/>
  <path id="_1" fill="white" fill-rule="nonzero" d="M382.51 357.52l-1.32 4.66c-1.52,-0.61 -2.94,-0.91 -4.24,-0.91 -3.68,0 -6.06,1.75 -7.15,5.24 0,8.99 0.06,15.27 0.17,18.84l-5.18 0c0.31,-6.19 0.47,-11 0.47,-14.41 0,-4.63 -0.46,-9.07 -1.38,-13.31l5.13 -0.73c0.37,2.15 0.55,3.59 0.55,4.31l0.24 0c2.11,-3.11 4.57,-4.66 7.38,-4.66 1.49,0 3.26,0.32 5.33,0.97z"/>
  <path id="_2" fill="white" fill-rule="nonzero" d="M424 368.15c0,0.82 -0.04,1.96 -0.12,3.4l-20.12 0.35c0.19,2.85 1.3,5.24 3.31,7.17 2.01,1.92 4.67,2.88 8,2.88 2.96,0 5.75,-0.36 8.34,-1.08l-0.49 4.13c-1.92,0.76 -4.68,1.14 -8.29,1.14 -5.08,0 -8.95,-1.39 -11.62,-4.16 -2.67,-2.77 -4,-6.15 -4,-10.14 0,-4.25 1.22,-7.92 3.65,-11 2.43,-3.07 5.7,-4.61 9.8,-4.61 3.77,0 6.63,1.11 8.6,3.34 1.96,2.22 2.94,5.09 2.94,8.58zm-4.89 0.06c0,-5.49 -2.3,-8.23 -6.89,-8.23 -4.68,0 -7.45,2.85 -8.29,8.55l15.18 -0.32z"/>
  <path id="_3" fill="white" fill-rule="nonzero" d="M466.66 385.35l-4.6 0.18c-0.23,-0.96 -0.35,-1.87 -0.35,-2.73l-0.29 0c-2.41,2.19 -5.68,3.28 -9.82,3.28 -2.25,0 -4.18,-0.66 -5.8,-1.98 -1.62,-1.31 -2.43,-3.19 -2.43,-5.64 0,-3 1.27,-5.42 3.81,-7.25 2.54,-1.82 7.25,-2.78 14.15,-2.88 0.06,-0.47 0.09,-1.01 0.09,-1.61 0,-2.41 -0.64,-4.01 -1.92,-4.81 -1.28,-0.8 -3.22,-1.2 -5.82,-1.2 -3.07,0 -6.08,0.38 -9.05,1.14l0.5 -4.04c2.93,-0.84 6.3,-1.26 10.1,-1.26 3.48,0 6.17,0.72 8.06,2.15 1.89,1.44 2.84,3.89 2.84,7.34 0,0.92 -0.04,2.59 -0.13,5 -0.09,2.41 -0.13,4.02 -0.13,4.82 0,3.55 0.26,6.72 0.79,9.49zm-5.19 -5.68c-0.09,-2.97 -0.14,-5.64 -0.14,-8 -3.67,0 -6.47,0.27 -8.38,0.82 -3.2,0.98 -4.81,2.84 -4.81,5.59 0,2.66 1.88,3.99 5.63,3.99 3.22,0 5.79,-0.8 7.7,-2.4z"/>
  <path id="_4" fill="white" fill-rule="nonzero" d="M504.04 381.31l-0.35 3.81c-1.54,0.56 -3,0.84 -4.36,0.85 -3.52,-0.01 -5.92,-0.9 -7.21,-2.69 -1.29,-1.78 -1.94,-4.98 -1.94,-9.59 0,-2.99 0.02,-6.89 0.06,-11.69 -1.09,0 -2.7,0.06 -4.83,0.18l0.18 -4.25c1.85,0.11 3.51,0.17 4.98,0.17 0,-1.17 0.09,-3.95 0.29,-8.35l4.6 -0.46c-0.33,4.1 -0.5,7.04 -0.5,8.81 1.91,0 4.73,-0.09 8.44,-0.29l-0.21 4.37c-3.51,-0.12 -6.34,-0.18 -8.46,-0.18 -0.04,2.95 -0.06,6.27 -0.06,9.96 0,4.02 0.42,6.69 1.27,7.98 0.85,1.3 2.43,1.95 4.73,1.95 0.76,0 1.89,-0.19 3.37,-0.58z"/>
  <path id="_5" fill="white" fill-rule="nonzero" d="M528.71 385.35l-5.3 0c0.27,-3.91 0.41,-8.37 0.41,-13.39 0,-5.64 -0.34,-10.38 -1.03,-14.21l5.86 -0.79c-0.23,4.08 -0.35,9.08 -0.35,15 0,4.69 0.14,9.15 0.41,13.39zm1.23 -36.62c0,0.99 -0.32,1.86 -0.97,2.59 -0.64,0.73 -1.55,1.1 -2.72,1.1 -1,0 -1.77,-0.32 -2.33,-0.95 -0.56,-0.64 -0.84,-1.4 -0.84,-2.3 0,-0.98 0.34,-1.83 1,-2.55 0.66,-0.72 1.58,-1.08 2.75,-1.08 0.96,0 1.72,0.31 2.28,0.95 0.55,0.63 0.83,1.38 0.83,2.24z"/>
  <path id="_6" fill="white" fill-rule="nonzero" d="M574.04 357.52c0,0.95 -1.98,5.57 -5.93,13.84 -3.96,8.27 -5.94,12.93 -5.94,13.99l-3.92 0c0,-1.37 -1.75,-6.15 -5.23,-14.34 -3.49,-8.19 -5.23,-12.69 -5.23,-13.49l5.68 0c0,0.93 1.27,4.66 3.81,11.16 2.54,6.5 3.81,10.22 3.81,11.16l0.26 0c0,-0.9 1.21,-4.48 3.62,-10.75 2.41,-6.27 3.62,-10.13 3.62,-11.57l5.45 0z"/>
  <path id="_7" fill="white" fill-rule="nonzero" d="M617.11 368.15c0,0.82 -0.04,1.96 -0.12,3.4l-20.12 0.35c0.19,2.85 1.3,5.24 3.31,7.17 2.01,1.92 4.67,2.88 8,2.88 2.96,0 5.75,-0.36 8.34,-1.08l-0.49 4.13c-1.92,0.76 -4.68,1.14 -8.29,1.14 -5.08,0 -8.95,-1.39 -11.62,-4.16 -2.67,-2.77 -4,-6.15 -4,-10.14 0,-4.25 1.22,-7.92 3.65,-11 2.43,-3.07 5.7,-4.61 9.8,-4.61 3.77,0 6.63,1.11 8.6,3.34 1.96,2.22 2.94,5.09 2.94,8.58zm-4.89 0.06c0,-5.49 -2.3,-8.23 -6.89,-8.23 -4.68,0 -7.45,2.85 -8.29,8.55l15.18 -0.32z"/>
  <path id="_8" fill="white" fill-rule="nonzero" d="M715.59 377.41c0,5.7 -3.64,8.55 -10.93,8.56 -3.22,-0.01 -6.23,-0.33 -9.02,-0.97l0.91 -4.31c2.54,0.98 5.29,1.47 8.26,1.47 4.26,0 6.39,-1.21 6.39,-3.64 0,-1.17 -0.48,-2.1 -1.42,-2.79 -0.95,-0.7 -2.52,-1.47 -4.71,-2.33 -2.77,-1.1 -4.78,-2.15 -6.03,-3.17 -1.84,-1.5 -2.76,-3.32 -2.76,-5.45 0,-2.22 0.84,-4.13 2.52,-5.72 1.68,-1.6 4.24,-2.39 7.68,-2.39 3.36,0 6.05,0.28 8.09,0.85l-0.91 4.22c-2.11,-0.84 -4.55,-1.26 -7.33,-1.26 -3.75,0 -5.62,1.08 -5.62,3.25 0,1.09 0.42,1.98 1.26,2.65 0.84,0.67 2.48,1.49 4.92,2.45 2.64,1.03 4.59,2.05 5.86,3.04 1.89,1.55 2.84,3.39 2.84,5.54z"/>
  <path id="_9" fill="white" fill-rule="nonzero" d="M762.59 370.29c0,4.22 -1.21,7.92 -3.62,11.09 -2.41,3.17 -5.77,4.76 -10.06,4.76 -3.6,0 -5.96,-0.64 -7.09,-1.93l-0.29 0c0,5.43 0.05,10.27 0.17,14.53l-5.51 0c0.45,-5.2 0.68,-11.61 0.68,-19.25 0,-9.41 -0.49,-16.7 -1.47,-21.86l5.16 -0.73 0.44 2.9 0.29 0c1.9,-2.2 4.96,-3.31 9.2,-3.31 3.73,0 6.68,1.36 8.85,4.09 2.17,2.72 3.25,5.96 3.25,9.71zm-5.22 0.7c0,-2.89 -0.76,-5.36 -2.28,-7.42 -1.52,-2.06 -3.66,-3.09 -6.42,-3.09 -3.51,0 -6.03,1.06 -7.55,3.19 0.31,6.56 0.46,12.2 0.46,16.9 1.59,1.33 3.65,2 6.19,2 3.22,0 5.63,-1.14 7.22,-3.4 1.59,-2.27 2.38,-4.99 2.38,-8.18z"/>
  <path id="_10" fill="white" fill-rule="nonzero" d="M805.25 385.35l-4.6 0.18c-0.23,-0.96 -0.35,-1.87 -0.35,-2.73l-0.29 0c-2.41,2.19 -5.68,3.28 -9.82,3.28 -2.25,0 -4.18,-0.66 -5.8,-1.98 -1.62,-1.31 -2.43,-3.19 -2.43,-5.64 0,-3 1.27,-5.42 3.81,-7.25 2.54,-1.82 7.25,-2.78 14.15,-2.88 0.06,-0.47 0.09,-1.01 0.09,-1.61 0,-2.41 -0.64,-4.01 -1.92,-4.81 -1.28,-0.8 -3.22,-1.2 -5.82,-1.2 -3.07,0 -6.08,0.38 -9.05,1.14l0.5 -4.04c2.93,-0.84 6.3,-1.26 10.1,-1.26 3.48,0 6.17,0.72 8.06,2.15 1.89,1.44 2.84,3.89 2.84,7.34 0,0.92 -0.04,2.59 -0.13,5 -0.09,2.41 -0.13,4.02 -0.13,4.82 0,3.55 0.26,6.72 0.79,9.49zm-5.19 -5.68c-0.09,-2.97 -0.14,-5.64 -0.14,-8 -3.67,0 -6.47,0.27 -8.38,0.82 -3.2,0.98 -4.81,2.84 -4.81,5.59 0,2.66 1.88,3.99 5.63,3.99 3.22,0 5.79,-0.8 7.7,-2.4z"/>
  <path id="_11" fill="white" fill-rule="nonzero" d="M844.27 357.52l-1.32 4.66c-1.52,-0.61 -2.94,-0.91 -4.24,-0.91 -3.68,0 -6.06,1.75 -7.15,5.24 0,8.99 0.06,15.27 0.17,18.84l-5.18 0c0.31,-6.19 0.47,-11 0.47,-14.41 0,-4.63 -0.46,-9.07 -1.38,-13.31l5.13 -0.73c0.37,2.15 0.55,3.59 0.55,4.31l0.24 0c2.11,-3.11 4.57,-4.66 7.38,-4.66 1.49,0 3.26,0.32 5.33,0.97z"/>
  <path id="_12" fill="white" fill-rule="nonzero" d="M886.84 385.35l-6.88 0c0,-0.68 -1.89,-3.29 -5.68,-7.82 -3.89,-4.67 -6.33,-7 -7.33,-7l-0.2 0c0,4.18 0.1,9.12 0.32,14.82l-5.16 0c0.26,-7.15 0.38,-14.43 0.38,-21.86 0,-7.55 -0.28,-14.01 -0.85,-19.36l5.63 -0.29c-0.22,4.22 -0.32,12.41 -0.32,24.58l0.2 0c0.65,0 2.67,-1.65 6.08,-4.94 3.41,-3.29 5.11,-5.28 5.11,-5.96l6.48 0c0,0.62 -1.54,2.24 -4.6,4.86 -2.87,2.44 -5.5,4.45 -7.88,6.04l0 0.23c2.42,1.84 5.54,4.98 9.34,9.43 3.58,4.2 5.36,6.63 5.36,7.27z"/>
 </g>
</svg>
